#N canvas 351 148 910 495 10;
#X obj -209 -442 key;
#X obj -210 -556 tgl 15 0 empty empty empty 17 7 0 10 -262144 -1 -1
1 1;
#X msg -210 -530 \; pd dsp \$1;
#N canvas 560 67 576 570 get-note 1;
#X obj -199 -416 inlet;
#X obj -199 -388 - 97;
#N canvas 0 22 450 300 (subpatch) 0;
#X array notes 26 float 3;
#A 0 60 0 0 64 63 65 67 69 0 71 72 0 0 0 0 0 0 0 62 66 70 0 61 0 68
0;
#X coords 0 120 26 0 300 140 1 0 0;
#X restore -202 -195 graph;
#X obj -202 -283 loadbang;
#X obj -199 -359 tabread notes;
#X msg -202 -261 \; notes 0 60 0 0 64 63 65 67 69 0 71 72 0 0 0 0 0
0 0 62 66 70 0 61 0 68 0;
#X obj -154 -308 outlet;
#X obj -135 -332 print midival;
#X obj -199 -332 moses 60;
#X connect 0 0 1 0;
#X connect 1 0 4 0;
#X connect 3 0 5 0;
#X connect 4 0 7 0;
#X connect 4 0 8 0;
#X connect 8 1 6 0;
#X restore -125 -372 pd get-note;
#X obj -144 -416 print keyval;
#X obj -209 -407 moses 97;
#N canvas 730 78 450 300 get-chord 0;
#X obj 27 37 inlet;
#X obj 27 61 - 49;
#X obj 27 88 sel 0 1 2 3 4 5 6 7 8;
#X connect 0 0 1 0;
#X connect 1 0 2 0;
#X restore -209 -372 pd get-chord;
#X obj -125 -347 s nt;
#X obj 16 -533 r nt;
#X obj 16 -506 mtof;
#X floatatom 16 -478 5 0 0 0 - - -;
#X obj 56 -477 bng 15 250 50 0 empty empty empty 17 7 0 10 -262144
-1 -1;
#X obj 16 -408 osc~;
#X obj 16 -346 dac~;
#X obj 16 -380 *~;
#X obj 56 -408 vline~;
#X msg 56 -443 1 200 \, 0.7 200 400 \, 0 400 500;
#X connect 0 0 4 0;
#X connect 0 0 5 0;
#X connect 1 0 2 0;
#X connect 3 0 7 0;
#X connect 5 0 6 0;
#X connect 5 1 3 0;
#X connect 8 0 9 0;
#X connect 9 0 10 0;
#X connect 9 0 11 0;
#X connect 10 0 12 0;
#X connect 11 0 16 0;
#X connect 12 0 14 0;
#X connect 14 0 13 0;
#X connect 14 0 13 1;
#X connect 15 0 14 1;
#X connect 16 0 15 0;
