#N canvas 98 22 910 495 10;
#X obj -209 -442 key;
#X obj -210 -556 tgl 15 0 empty empty empty 17 7 0 10 -262144 -1 -1
0 1;
#X msg -210 -530 \; pd dsp \$1;
#N canvas 560 67 576 570 get-note 1;
#X obj -199 -416 inlet;
#X obj -199 -388 - 97;
#N canvas 0 22 450 300 (subpatch) 0;
#X array notes 26 float 3;
#A 0 60 0 0 64 63 65 67 69 0 71 72 0 0 0 0 0 0 0 62 66 70 0 61 0 68
0;
#X coords 0 120 26 0 300 140 1 0 0;
#X restore -192 -4 graph;
#X obj -192 -92 loadbang;
#X obj -199 -359 tabread notes;
#X msg -192 -70 \; notes 0 60 0 0 64 63 65 67 69 0 71 72 0 0 0 0 0
0 0 62 66 70 0 61 0 68 0;
#X obj -76 -235 outlet;
#X obj -135 -332 print midival;
#X obj -199 -332 moses 60;
#X obj -154 -228 unpack 0 0;
#X obj -154 -300 poly 5 1;
#X obj -154 -259 pack 0 0;
#X obj -154 -197 print route;
#X obj -74 -197 print midi;
#X connect 0 0 1 0;
#X connect 1 0 4 0;
#X connect 3 0 5 0;
#X connect 4 0 7 0;
#X connect 4 0 8 0;
#X connect 8 1 10 0;
#X connect 9 0 12 0;
#X connect 9 1 13 0;
#X connect 10 0 11 0;
#X connect 10 1 11 1;
#X connect 11 0 9 0;
#X connect 11 0 6 0;
#X restore -125 -371 pd get-note;
#X obj -143 -406 print keyval;
#X obj -209 -406 moses 97;
#N canvas 490 68 664 597 get-chord 1;
#X obj 20 -112 inlet;
#X obj 20 -88 - 49;
#X obj 20 -61 sel 0 1 2 3 4 5 6 7 8;
#X obj 108 333 osc~ 200;
#X obj 232 335 osc~ 400;
#X obj 351 334 osc~ 600;
#X obj 56 314 vline~;
#X obj 56 357 *~;
#X obj 183 309 vline~;
#X obj 183 352 *~;
#X obj 304 313 vline~;
#X obj 304 356 *~;
#X obj 253 416 *~ 0.25;
#X obj 243 451 dac~;
#X obj 108 277 r rt;
#X obj 232 284 r thrd;
#X obj 351 284 r fth;
#X obj 351 308 mtof;
#X obj 232 308 mtof;
#X obj 108 305 mtof;
#X obj 56 289 r pa;
#X obj 183 284 r pa;
#X obj 304 288 r pa;
#X msg 20 -13 \; rt 60 \; thrd 64 \; fth 67;
#X msg 406 14 \; pa 1 200 \, 0.7 200 400 \, 0 400 500;
#X msg 33 59 \; rt 62 \; thrd 66 \; fth 69;
#X msg 47 126 \; rt 64 \; thrd 68 \; fth 71;
#X msg 61 189 \; rt 65 \; thrd 69 \; fth 72;
#X msg 74 -13 \; rt 67 \; thrd 71 \; fth 62;
#X msg 88 59 \; rt 69 \; thrd 61 \; fth 64;
#X msg 102 126 \; rt 71 \; thrd 63 \; fth 66;
#X msg 115 189 \; rt 72 \; thrd 64 \; fth 67;
#X connect 0 0 1 0;
#X connect 1 0 2 0;
#X connect 2 0 23 0;
#X connect 2 0 24 0;
#X connect 2 1 25 0;
#X connect 2 1 24 0;
#X connect 2 2 24 0;
#X connect 2 2 26 0;
#X connect 2 3 24 0;
#X connect 2 3 27 0;
#X connect 2 4 24 0;
#X connect 2 4 28 0;
#X connect 2 5 24 0;
#X connect 2 5 29 0;
#X connect 2 6 24 0;
#X connect 2 6 30 0;
#X connect 2 7 24 0;
#X connect 2 7 31 0;
#X connect 2 8 24 0;
#X connect 3 0 7 1;
#X connect 4 0 9 1;
#X connect 5 0 11 1;
#X connect 6 0 7 0;
#X connect 7 0 12 0;
#X connect 8 0 9 0;
#X connect 9 0 12 0;
#X connect 10 0 11 0;
#X connect 11 0 12 0;
#X connect 12 0 13 0;
#X connect 12 0 13 1;
#X connect 14 0 19 0;
#X connect 15 0 18 0;
#X connect 16 0 17 0;
#X connect 17 0 5 0;
#X connect 18 0 4 0;
#X connect 19 0 3 0;
#X connect 20 0 6 0;
#X connect 21 0 8 0;
#X connect 22 0 10 0;
#X restore -209 -371 pd get-chord;
#N canvas 374 71 1129 582 route-note 0;
#X obj -81 -504 inlet;
#X obj -81 -392 mtof;
#X floatatom -81 -364 5 0 0 0 - - -;
#X obj -41 -363 bng 15 250 50 0 empty empty empty 17 7 0 10 -262144
-1 -1;
#X obj -81 -294 osc~;
#X obj -81 -232 dac~;
#X obj -81 -266 *~;
#X obj -41 -294 vline~;
#X msg -41 -329 1 200 \, 0.7 200 400 \, 0 400 500;
#X obj -81 -470 route 1 2 3 4 5;
#X obj 168 -382 mtof;
#X floatatom 168 -354 5 0 0 0 - - -;
#X obj 208 -353 bng 15 250 50 0 empty empty empty 17 7 0 10 -262144
-1 -1;
#X obj 168 -284 osc~;
#X obj 168 -222 dac~;
#X obj 168 -256 *~;
#X obj 208 -284 vline~;
#X msg 208 -319 1 200 \, 0.7 200 400 \, 0 400 500;
#X obj 402 -386 mtof;
#X floatatom 402 -358 5 0 0 0 - - -;
#X obj 442 -357 bng 15 250 50 0 empty empty empty 17 7 0 10 -262144
-1 -1;
#X obj 402 -288 osc~;
#X obj 402 -226 dac~;
#X obj 402 -260 *~;
#X obj 442 -288 vline~;
#X msg 442 -323 1 200 \, 0.7 200 400 \, 0 400 500;
#X obj 20 -184 mtof;
#X floatatom 20 -156 5 0 0 0 - - -;
#X obj 60 -155 bng 15 250 50 0 empty empty empty 17 7 0 10 -262144
-1 -1;
#X obj 20 -86 osc~;
#X obj 20 -24 dac~;
#X obj 20 -58 *~;
#X obj 60 -86 vline~;
#X msg 60 -121 1 200 \, 0.7 200 400 \, 0 400 500;
#X obj 312 -171 mtof;
#X floatatom 312 -143 5 0 0 0 - - -;
#X obj 352 -142 bng 15 250 50 0 empty empty empty 17 7 0 10 -262144
-1 -1;
#X obj 312 -73 osc~;
#X obj 312 -11 dac~;
#X obj 312 -45 *~;
#X obj 352 -73 vline~;
#X msg 352 -108 1 200 \, 0.7 200 400 \, 0 400 500;
#X connect 0 0 9 0;
#X connect 1 0 2 0;
#X connect 1 0 3 0;
#X connect 2 0 4 0;
#X connect 3 0 8 0;
#X connect 4 0 6 0;
#X connect 6 0 5 0;
#X connect 6 0 5 1;
#X connect 7 0 6 1;
#X connect 8 0 7 0;
#X connect 9 0 1 0;
#X connect 9 1 26 0;
#X connect 9 2 10 0;
#X connect 9 3 34 0;
#X connect 9 4 18 0;
#X connect 10 0 11 0;
#X connect 10 0 12 0;
#X connect 11 0 13 0;
#X connect 12 0 17 0;
#X connect 13 0 15 0;
#X connect 15 0 14 0;
#X connect 15 0 14 1;
#X connect 16 0 15 1;
#X connect 17 0 16 0;
#X connect 18 0 19 0;
#X connect 18 0 20 0;
#X connect 19 0 21 0;
#X connect 20 0 25 0;
#X connect 21 0 23 0;
#X connect 23 0 22 0;
#X connect 23 0 22 1;
#X connect 24 0 23 1;
#X connect 25 0 24 0;
#X connect 26 0 27 0;
#X connect 26 0 28 0;
#X connect 27 0 29 0;
#X connect 28 0 33 0;
#X connect 29 0 31 0;
#X connect 31 0 30 0;
#X connect 31 0 30 1;
#X connect 32 0 31 1;
#X connect 33 0 32 0;
#X connect 34 0 35 0;
#X connect 34 0 36 0;
#X connect 35 0 37 0;
#X connect 36 0 41 0;
#X connect 37 0 39 0;
#X connect 39 0 38 0;
#X connect 39 0 38 1;
#X connect 40 0 39 1;
#X connect 41 0 40 0;
#X restore -125 -339 pd route-note;
#X connect 0 0 4 0;
#X connect 0 0 5 0;
#X connect 1 0 2 0;
#X connect 3 0 7 0;
#X connect 5 0 6 0;
#X connect 5 1 3 0;
