#N canvas 98 22 910 495 10;
#X obj -209 -442 key;
#X obj -210 -556 tgl 15 0 empty empty empty 17 7 0 10 -262144 -1 -1
0 1;
#X msg -210 -530 \; pd dsp \$1;
#N canvas 560 67 576 570 get-note 0;
#X obj -199 -416 inlet;
#X obj -199 -388 - 97;
#N canvas 0 22 450 300 (subpatch) 0;
#X array notes 26 float 3;
#A 0 60 0 0 64 63 65 67 69 0 71 72 0 0 0 0 0 0 0 62 66 70 0 61 0 68
0;
#X coords 0 120 26 0 300 140 1 0 0;
#X restore -192 -4 graph;
#X obj -192 -92 loadbang;
#X obj -199 -359 tabread notes;
#X msg -192 -70 \; notes 0 60 0 0 64 63 65 67 69 0 71 72 0 0 0 0 0
0 0 62 66 70 0 61 0 68 0;
#X obj -76 -235 outlet;
#X obj -135 -332 print midival;
#X obj -199 -332 moses 60;
#X obj -154 -228 unpack 0 0;
#X obj -154 -300 poly 5 1;
#X obj -154 -259 pack 0 0;
#X obj -154 -197 print route;
#X obj -74 -197 print midi;
#X connect 0 0 1 0;
#X connect 1 0 4 0;
#X connect 3 0 5 0;
#X connect 4 0 7 0;
#X connect 4 0 8 0;
#X connect 8 1 10 0;
#X connect 9 0 12 0;
#X connect 9 1 13 0;
#X connect 10 0 11 0;
#X connect 10 1 11 1;
#X connect 11 0 9 0;
#X connect 11 0 6 0;
#X restore -125 -371 pd get-note;
#X obj -143 -406 print keyval;
#X obj -209 -406 moses 97;
#N canvas 730 78 450 300 get-chord 0;
#X obj 27 37 inlet;
#X obj 27 61 - 49;
#X obj 27 88 sel 0 1 2 3 4 5 6 7 8;
#X connect 0 0 1 0;
#X connect 1 0 2 0;
#X restore -209 -371 pd get-chord;
#N canvas 374 71 1129 582 route-note 1;
#X obj -109 -503 inlet;
#X obj -109 -391 mtof;
#X floatatom -109 -363 5 0 0 0 - - -;
#X obj -69 -362 bng 15 250 50 0 empty empty empty 17 7 0 10 -262144
-1 -1;
#X obj -109 -293 osc~;
#X obj -109 -231 dac~;
#X obj -109 -265 *~;
#X obj -69 -293 vline~;
#X msg -69 -328 1 200 \, 0.7 200 400 \, 0 400 500;
#X obj -109 -469 route 1 2 3 4 5;
#X obj 140 -381 mtof;
#X floatatom 140 -353 5 0 0 0 - - -;
#X obj 180 -352 bng 15 250 50 0 empty empty empty 17 7 0 10 -262144
-1 -1;
#X obj 140 -283 osc~;
#X obj 140 -221 dac~;
#X obj 140 -255 *~;
#X obj 180 -283 vline~;
#X msg 180 -318 1 200 \, 0.7 200 400 \, 0 400 500;
#X obj 374 -385 mtof;
#X floatatom 374 -357 5 0 0 0 - - -;
#X obj 414 -356 bng 15 250 50 0 empty empty empty 17 7 0 10 -262144
-1 -1;
#X obj 374 -287 osc~;
#X obj 374 -225 dac~;
#X obj 374 -259 *~;
#X obj 414 -287 vline~;
#X msg 414 -322 1 200 \, 0.7 200 400 \, 0 400 500;
#X obj -8 -183 mtof;
#X floatatom -8 -155 5 0 0 0 - - -;
#X obj 32 -154 bng 15 250 50 0 empty empty empty 17 7 0 10 -262144
-1 -1;
#X obj -8 -85 osc~;
#X obj -8 -23 dac~;
#X obj -8 -57 *~;
#X obj 32 -85 vline~;
#X msg 32 -120 1 200 \, 0.7 200 400 \, 0 400 500;
#X obj 284 -170 mtof;
#X floatatom 284 -142 5 0 0 0 - - -;
#X obj 324 -141 bng 15 250 50 0 empty empty empty 17 7 0 10 -262144
-1 -1;
#X obj 284 -72 osc~;
#X obj 284 -10 dac~;
#X obj 284 -44 *~;
#X obj 324 -72 vline~;
#X msg 324 -107 1 200 \, 0.7 200 400 \, 0 400 500;
#X connect 0 0 9 0;
#X connect 1 0 2 0;
#X connect 1 0 3 0;
#X connect 2 0 4 0;
#X connect 3 0 8 0;
#X connect 4 0 6 0;
#X connect 6 0 5 0;
#X connect 6 0 5 1;
#X connect 7 0 6 1;
#X connect 8 0 7 0;
#X connect 9 0 1 0;
#X connect 9 1 26 0;
#X connect 9 2 10 0;
#X connect 9 3 34 0;
#X connect 9 4 18 0;
#X connect 10 0 11 0;
#X connect 10 0 12 0;
#X connect 11 0 13 0;
#X connect 12 0 17 0;
#X connect 13 0 15 0;
#X connect 15 0 14 0;
#X connect 15 0 14 1;
#X connect 16 0 15 1;
#X connect 17 0 16 0;
#X connect 18 0 19 0;
#X connect 18 0 20 0;
#X connect 19 0 21 0;
#X connect 20 0 25 0;
#X connect 21 0 23 0;
#X connect 23 0 22 0;
#X connect 23 0 22 1;
#X connect 24 0 23 1;
#X connect 25 0 24 0;
#X connect 26 0 27 0;
#X connect 26 0 28 0;
#X connect 27 0 29 0;
#X connect 28 0 33 0;
#X connect 29 0 31 0;
#X connect 31 0 30 0;
#X connect 31 0 30 1;
#X connect 32 0 31 1;
#X connect 33 0 32 0;
#X connect 34 0 35 0;
#X connect 34 0 36 0;
#X connect 35 0 37 0;
#X connect 36 0 41 0;
#X connect 37 0 39 0;
#X connect 39 0 38 0;
#X connect 39 0 38 1;
#X connect 40 0 39 1;
#X connect 41 0 40 0;
#X restore -125 -339 pd route-note;
#X connect 0 0 4 0;
#X connect 0 0 5 0;
#X connect 1 0 2 0;
#X connect 3 0 7 0;
#X connect 5 0 6 0;
#X connect 5 1 3 0;
